# xmcd
#
# Track frame offsets:
#	150
#	18155
#	35885
#	52820
#	71312
#	86615
#	100362
#	120212
#	135095
#	151877
#	171565
#	187277
#	202905
#	217067
#	232492
#	244915
#
# Disc length: 3474 seconds
#
# Revision: 3
# Processed by: cddbd v1.5.2PL0 Copyright (c) Steve Scherf et al.
# Submitted via: EasyCDDAExtractor 15.3.0.1
#
DISCID=df0d9010
DTITLE=Pandora - La Historia
DYEAR=2004
DGENRE=Latin
TTITLE0=Como Te Va Mi Amor
TTITLE1=No Puedo Dejar De Pensar En Ti
TTITLE2=Matandome Suavemente (Killing Me Softly With His Song)
TTITLE3=Todavia
TTITLE4=Como Una Mariposa
TTITLE5=No Lastimes Mas
TTITLE6=Con Tu Amor
TTITLE7=Desde El Dia Que Te Fuiste (Without You)
TTITLE8=Solo El Y Yo
TTITLE9=Amor Eterno
TTITLE10=Alguien Llena Mi Lugar
TTITLE11=Ni Tu Ni Yo
TTITLE12=De Mil Maneras
TTITLE13=Atrapada
TTITLE14=Cuando Quieras Dejame
TTITLE15=Se Me Olvido Otra Vez
EXTD=
EXTT0=
EXTT1=
EXTT2=
EXTT3=
EXTT4=
EXTT5=
EXTT6=
EXTT7=
EXTT8=
EXTT9=
EXTT10=
EXTT11=
EXTT12=
EXTT13=
EXTT14=
EXTT15=
PLAYORDER=
